<svg width="134" height="37" viewBox="0 0 134 37" fill="none" xmlns="http://www.w3.org/2000/svg">
<path d="M6.01497 10.714C6.58164 9.83 7.36364 9.116 8.36097 8.572C9.35831 8.028 10.5256 7.756 11.863 7.756C13.427 7.756 14.8436 8.15267 16.113 8.946C17.3823 9.73933 18.3796 10.8727 19.105 12.346C19.853 13.8193 20.227 15.5307 20.227 17.48C20.227 19.4293 19.853 21.152 19.105 22.648C18.3796 24.1213 17.3823 25.266 16.113 26.082C14.8436 26.8753 13.427 27.272 11.863 27.272C10.5483 27.272 9.38097 27 8.36097 26.456C7.36364 25.912 6.58164 25.2093 6.01497 24.348V36.044H0.200972V8.028H6.01497V10.714ZM14.311 17.48C14.311 16.0293 13.903 14.896 13.087 14.08C12.2936 13.2413 11.3076 12.822 10.129 12.822C8.97297 12.822 7.98697 13.2413 7.17097 14.08C6.37764 14.9187 5.98097 16.0633 5.98097 17.514C5.98097 18.9647 6.37764 20.1093 7.17097 20.948C7.98697 21.7867 8.97297 22.206 10.129 22.206C11.285 22.206 12.271 21.7867 13.087 20.948C13.903 20.0867 14.311 18.9307 14.311 17.48ZM24.5011 17.48C24.5011 15.5307 24.8638 13.8193 25.5891 12.346C26.3371 10.8727 27.3458 9.73933 28.6151 8.946C29.8845 8.15267 31.3011 7.756 32.8651 7.756C34.2025 7.756 35.3698 8.028 36.3671 8.572C37.3871 9.116 38.1691 9.83 38.7131 10.714V8.028H44.5271V27H38.7131V24.314C38.1465 25.198 37.3531 25.912 36.3331 26.456C35.3358 27 34.1685 27.272 32.8311 27.272C31.2898 27.272 29.8845 26.8753 28.6151 26.082C27.3458 25.266 26.3371 24.1213 25.5891 22.648C24.8638 21.152 24.5011 19.4293 24.5011 17.48ZM38.7131 17.514C38.7131 16.0633 38.3051 14.9187 37.4891 14.08C36.6958 13.2413 35.7211 12.822 34.5651 12.822C33.4091 12.822 32.4231 13.2413 31.6071 14.08C30.8138 14.896 30.4171 16.0293 30.4171 17.48C30.4171 18.9307 30.8138 20.0867 31.6071 20.948C32.4231 21.7867 33.4091 22.206 34.5651 22.206C35.7211 22.206 36.6958 21.7867 37.4891 20.948C38.3051 20.1093 38.7131 18.9647 38.7131 17.514ZM58.3213 7.756C59.6587 7.756 60.826 8.028 61.8233 8.572C62.8433 9.116 63.6253 9.83 64.1693 10.714V8.028H69.9833V26.966C69.9833 28.7113 69.632 30.2867 68.9293 31.692C68.2493 33.12 67.1953 34.2533 65.7673 35.092C64.362 35.9307 62.6053 36.35 60.4973 36.35C57.6867 36.35 55.4087 35.6813 53.6633 34.344C51.918 33.0293 50.9207 31.2387 50.6713 28.972H56.4173C56.5987 29.6973 57.0293 30.264 57.7093 30.672C58.3893 31.1027 59.228 31.318 60.2253 31.318C61.4267 31.318 62.3787 30.9667 63.0813 30.264C63.8067 29.584 64.1693 28.4847 64.1693 26.966V24.28C63.6027 25.164 62.8207 25.8893 61.8233 26.456C60.826 27 59.6587 27.272 58.3213 27.272C56.7573 27.272 55.3407 26.8753 54.0713 26.082C52.802 25.266 51.7933 24.1213 51.0453 22.648C50.32 21.152 49.9573 19.4293 49.9573 17.48C49.9573 15.5307 50.32 13.8193 51.0453 12.346C51.7933 10.8727 52.802 9.73933 54.0713 8.946C55.3407 8.15267 56.7573 7.756 58.3213 7.756ZM64.1693 17.514C64.1693 16.0633 63.7613 14.9187 62.9453 14.08C62.152 13.2413 61.1773 12.822 60.0213 12.822C58.8653 12.822 57.8793 13.2413 57.0633 14.08C56.27 14.896 55.8733 16.0293 55.8733 17.48C55.8733 18.9307 56.27 20.0867 57.0633 20.948C57.8793 21.7867 58.8653 22.206 60.0213 22.206C61.1773 22.206 62.152 21.7867 62.9453 20.948C63.7613 20.1093 64.1693 18.9647 64.1693 17.514ZM94.4535 17.208C94.4535 17.752 94.4195 18.3187 94.3515 18.908H81.1935C81.2842 20.0867 81.6582 20.9933 82.3155 21.628C82.9955 22.24 83.8228 22.546 84.7975 22.546C86.2482 22.546 87.2568 21.934 87.8235 20.71H94.0115C93.6942 21.9567 93.1162 23.0787 92.2775 24.076C91.4615 25.0733 90.4302 25.8553 89.1835 26.422C87.9368 26.9887 86.5428 27.272 85.0015 27.272C83.1428 27.272 81.4882 26.8753 80.0375 26.082C78.5868 25.2887 77.4535 24.1553 76.6375 22.682C75.8215 21.2087 75.4135 19.486 75.4135 17.514C75.4135 15.542 75.8102 13.8193 76.6035 12.346C77.4195 10.8727 78.5528 9.73933 80.0035 8.946C81.4542 8.15267 83.1202 7.756 85.0015 7.756C86.8375 7.756 88.4695 8.14133 89.8975 8.912C91.3255 9.68267 92.4362 10.782 93.2295 12.21C94.0455 13.638 94.4535 15.304 94.4535 17.208ZM88.5035 15.678C88.5035 14.6807 88.1635 13.8873 87.4835 13.298C86.8035 12.7087 85.9535 12.414 84.9335 12.414C83.9588 12.414 83.1315 12.6973 82.4515 13.264C81.7942 13.8307 81.3862 14.6353 81.2275 15.678H88.5035ZM109.421 12.856H106.293V27H100.479V12.856H98.3707V8.028H100.479V7.484C100.479 5.14933 101.147 3.38133 102.485 2.18C103.822 0.955999 105.783 0.343999 108.367 0.343999C108.797 0.343999 109.115 0.355332 109.319 0.377998V5.308C108.208 5.24 107.426 5.39867 106.973 5.784C106.519 6.16933 106.293 6.86067 106.293 7.858V8.028H109.421V12.856ZM133.913 8.028L122.013 36.01H115.757L120.109 26.354L112.391 8.028H118.885L123.271 19.894L127.623 8.028H133.913Z" fill="url(#paint0_radial_1_26)"/>
<defs>
<radialGradient id="paint0_radial_1_26" cx="0" cy="0" r="1" gradientUnits="userSpaceOnUse" gradientTransform="translate(9.51613 8) rotate(17.0561) scale(121.033 272.994)">
<stop stop-color="#132871"/>
<stop offset="1" stop-color="#EB587B" stop-opacity="0.78"/>
</radialGradient>
</defs>
</svg>
